<?xml version="1.0" encoding="UTF-8" standalone="no"?>
<!DOCTYPE svg PUBLIC "-//W3C//DTD SVG 1.1//EN"
 "http://www.w3.org/Graphics/SVG/1.1/DTD/svg11.dtd">
<!-- Generated by graphviz version 2.44.1 (20200629.0846)
 -->
<!-- Title: G Pages: 1 -->
<svg width="454pt" height="1112pt"
 viewBox="0.00 0.00 454.00 1112.00" xmlns="http://www.w3.org/2000/svg" xmlns:xlink="http://www.w3.org/1999/xlink">
<g id="graph0" class="graph" transform="scale(1 1) rotate(0) translate(4 1108)">
<title>G</title>
<polygon fill="white" stroke="transparent" points="-4,4 -4,-1108 450,-1108 450,4 -4,4"/>
<g id="clust1" class="cluster">
<title>cluster_Global</title>
<path fill="none" stroke="gray" d="M20,-44C20,-44 426,-44 426,-44 432,-44 438,-50 438,-56 438,-56 438,-1084 438,-1084 438,-1090 432,-1096 426,-1096 426,-1096 20,-1096 20,-1096 14,-1096 8,-1090 8,-1084 8,-1084 8,-56 8,-56 8,-50 14,-44 20,-44"/>
<text text-anchor="middle" x="223" y="-1083.2" font-family="Times,serif" font-size="11.00" fill="gray">Global</text>
</g>
<g id="clust2" class="cluster">
<title>cluster_\JotForm</title>
<path fill="none" stroke="gray" d="M28,-52C28,-52 418,-52 418,-52 424,-52 430,-58 430,-64 430,-64 430,-1056 430,-1056 430,-1062 424,-1068 418,-1068 418,-1068 28,-1068 28,-1068 22,-1068 16,-1062 16,-1056 16,-1056 16,-64 16,-64 16,-58 22,-52 28,-52"/>
<text text-anchor="middle" x="223" y="-1055.2" font-family="Times,serif" font-size="11.00" fill="gray">JotForm</text>
</g>
<g id="clust3" class="cluster">
<title>cluster_\JotForm\Errors</title>
<path fill="none" stroke="gray" d="M219,-186C219,-186 410,-186 410,-186 416,-186 422,-192 422,-198 422,-198 422,-678 422,-678 422,-684 416,-690 410,-690 410,-690 219,-690 219,-690 213,-690 207,-684 207,-678 207,-678 207,-198 207,-198 207,-192 213,-186 219,-186"/>
<text text-anchor="middle" x="314.5" y="-677.2" font-family="Times,serif" font-size="11.00" fill="gray">Errors</text>
</g>
<g id="clust4" class="cluster">
<title>cluster_\JotForm\ClientFunctions</title>
<path fill="none" stroke="gray" d="M36,-698C36,-698 352.5,-698 352.5,-698 358.5,-698 364.5,-704 364.5,-710 364.5,-710 364.5,-1028 364.5,-1028 364.5,-1034 358.5,-1040 352.5,-1040 352.5,-1040 36,-1040 36,-1040 30,-1040 24,-1034 24,-1028 24,-1028 24,-710 24,-710 24,-704 30,-698 36,-698"/>
<text text-anchor="middle" x="194.25" y="-1027.2" font-family="Times,serif" font-size="11.00" fill="gray">ClientFunctions</text>
</g>
<g id="clust5" class="cluster">
<title>cluster_\JotForm\JotFormAPI</title>
<path fill="none" stroke="gray" d="M263,-106C263,-106 366,-106 366,-106 372,-106 378,-112 378,-118 378,-118 378,-166 378,-166 378,-172 372,-178 366,-178 366,-178 263,-178 263,-178 257,-178 251,-172 251,-166 251,-166 251,-118 251,-118 251,-112 257,-106 263,-106"/>
<text text-anchor="middle" x="314.5" y="-165.2" font-family="Times,serif" font-size="11.00" fill="gray">JotFormAPI</text>
</g>
<!-- \\JotForm\\Errors\\ServiceUnavailableException -->
<g id="node1" class="node">
<title>\\JotForm\\Errors\\ServiceUnavailableException</title>
<polygon fill="none" stroke="black" points="414,-662 215,-662 215,-626 414,-626 414,-662"/>
<text text-anchor="middle" x="314.5" y="-641.2" font-family="Courier,monospace" font-size="11.00">ServiceUnavailableException</text>
</g>
<!-- \\Exception -->
<g id="node19" class="node">
<title>\\Exception</title>
<ellipse fill="none" stroke="black" cx="87.5" cy="-18" rx="48.99" ry="18"/>
<text text-anchor="middle" x="87.5" y="-14.3" font-family="Times,serif" font-size="14.00" fill="gray">\Exception</text>
</g>
<!-- \\JotForm\\Errors\\ServiceUnavailableException&#45;&gt;\\Exception -->
<g id="edge1" class="edge">
<title>\\JotForm\\Errors\\ServiceUnavailableException&#45;&gt;\\Exception</title>
<path fill="none" stroke="black" d="M217.39,-625.85C213.65,-623.26 210.15,-620.32 207,-617 127.04,-532.69 97.13,-153.52 90.18,-46.32"/>
<polygon fill="none" stroke="black" points="93.67,-46.02 89.55,-36.26 86.69,-46.46 93.67,-46.02"/>
</g>
<!-- \\JotForm\\Errors\\DefaultException -->
<g id="node2" class="node">
<title>\\JotForm\\Errors\\DefaultException</title>
<polygon fill="none" stroke="black" points="377,-608 252,-608 252,-572 377,-572 377,-608"/>
<text text-anchor="middle" x="314.5" y="-587.2" font-family="Courier,monospace" font-size="11.00">DefaultException</text>
</g>
<!-- \\JotForm\\Errors\\DefaultException&#45;&gt;\\Exception -->
<g id="edge3" class="edge">
<title>\\JotForm\\Errors\\DefaultException&#45;&gt;\\Exception</title>
<path fill="none" stroke="black" d="M251.73,-586.11C235.26,-582.19 218.8,-575.21 207,-563 133.8,-487.25 99.43,-146.6 90.76,-46.03"/>
<polygon fill="none" stroke="black" points="94.24,-45.69 89.91,-36.02 87.27,-46.28 94.24,-45.69"/>
</g>
<!-- \\JotForm\\Errors\\ForbiddenException -->
<g id="node3" class="node">
<title>\\JotForm\\Errors\\ForbiddenException</title>
<polygon fill="none" stroke="black" points="383.5,-554 245.5,-554 245.5,-518 383.5,-518 383.5,-554"/>
<text text-anchor="middle" x="314.5" y="-533.2" font-family="Courier,monospace" font-size="11.00">ForbiddenException</text>
</g>
<!-- \\JotForm\\Errors\\ForbiddenException&#45;&gt;\\Exception -->
<g id="edge5" class="edge">
<title>\\JotForm\\Errors\\ForbiddenException&#45;&gt;\\Exception</title>
<path fill="none" stroke="black" d="M245.25,-530.18C231.07,-526.05 217.33,-519.44 207,-509 140.66,-441.89 102.11,-140.57 91.51,-46.29"/>
<polygon fill="none" stroke="black" points="94.96,-45.65 90.38,-36.09 88,-46.42 94.96,-45.65"/>
</g>
<!-- \\JotForm\\Errors\\BadRequestException -->
<g id="node4" class="node">
<title>\\JotForm\\Errors\\BadRequestException</title>
<polygon fill="none" stroke="black" points="387,-500 242,-500 242,-464 387,-464 387,-500"/>
<text text-anchor="middle" x="314.5" y="-479.2" font-family="Courier,monospace" font-size="11.00">BadRequestException</text>
</g>
<!-- \\JotForm\\Errors\\BadRequestException&#45;&gt;\\Exception -->
<g id="edge7" class="edge">
<title>\\JotForm\\Errors\\BadRequestException&#45;&gt;\\Exception</title>
<path fill="none" stroke="black" d="M241.88,-474.87C228.97,-470.71 216.59,-464.43 207,-455 147.35,-396.33 104.97,-133.07 92.38,-46.03"/>
<polygon fill="none" stroke="black" points="95.84,-45.5 90.96,-36.09 88.91,-46.49 95.84,-45.5"/>
</g>
<!-- \\JotForm\\Errors\\AuthorizationException -->
<g id="node5" class="node">
<title>\\JotForm\\Errors\\AuthorizationException</title>
<polygon fill="none" stroke="black" points="397,-446 232,-446 232,-410 397,-410 397,-446"/>
<text text-anchor="middle" x="314.5" y="-425.2" font-family="Courier,monospace" font-size="11.00">AuthorizationException</text>
</g>
<!-- \\JotForm\\Errors\\AuthorizationException&#45;&gt;\\Exception -->
<g id="edge8" class="edge">
<title>\\JotForm\\Errors\\AuthorizationException&#45;&gt;\\Exception</title>
<path fill="none" stroke="black" d="M231.83,-416.79C222.69,-412.9 214.12,-407.76 207,-401 103.99,-303.19 89.91,-117.92 88.43,-46.8"/>
<polygon fill="none" stroke="black" points="91.93,-46.35 88.29,-36.4 84.93,-46.44 91.93,-46.35"/>
</g>
<!-- \\JotForm\\Errors\\ServerException -->
<g id="node6" class="node">
<title>\\JotForm\\Errors\\ServerException</title>
<polygon fill="none" stroke="black" points="373.5,-392 255.5,-392 255.5,-356 373.5,-356 373.5,-392"/>
<text text-anchor="middle" x="314.5" y="-371.2" font-family="Courier,monospace" font-size="11.00">ServerException</text>
</g>
<!-- \\JotForm\\Errors\\ServerException&#45;&gt;\\Exception -->
<g id="edge9" class="edge">
<title>\\JotForm\\Errors\\ServerException&#45;&gt;\\Exception</title>
<path fill="none" stroke="black" d="M255.49,-369.72C238.17,-365.89 220.28,-359.05 207,-347 116.88,-265.26 95.24,-109.88 90.09,-46.24"/>
<polygon fill="none" stroke="black" points="93.57,-45.87 89.35,-36.15 86.59,-46.38 93.57,-45.87"/>
</g>
<!-- \\JotForm\\Errors\\BadGatewayException -->
<g id="node7" class="node">
<title>\\JotForm\\Errors\\BadGatewayException</title>
<polygon fill="none" stroke="black" points="387,-338 242,-338 242,-302 387,-302 387,-338"/>
<text text-anchor="middle" x="314.5" y="-317.2" font-family="Courier,monospace" font-size="11.00">BadGatewayException</text>
</g>
<!-- \\JotForm\\Errors\\BadGatewayException&#45;&gt;\\Exception -->
<g id="edge10" class="edge">
<title>\\JotForm\\Errors\\BadGatewayException&#45;&gt;\\Exception</title>
<path fill="none" stroke="black" d="M241.79,-311.41C229.19,-307.35 216.94,-301.48 207,-293 129.86,-227.22 101.48,-102.09 92.34,-46.2"/>
<polygon fill="none" stroke="black" points="95.75,-45.33 90.76,-35.98 88.83,-46.4 95.75,-45.33"/>
</g>
<!-- \\JotForm\\Errors\\NotFoundException -->
<g id="node8" class="node">
<title>\\JotForm\\Errors\\NotFoundException</title>
<polygon fill="none" stroke="black" points="380,-284 249,-284 249,-248 380,-248 380,-284"/>
<text text-anchor="middle" x="314.5" y="-263.2" font-family="Courier,monospace" font-size="11.00">NotFoundException</text>
</g>
<!-- \\JotForm\\Errors\\NotFoundException&#45;&gt;\\Exception -->
<g id="edge13" class="edge">
<title>\\JotForm\\Errors\\NotFoundException&#45;&gt;\\Exception</title>
<path fill="none" stroke="black" d="M248.75,-258.59C233.93,-254.56 219.02,-248.4 207,-239 142.58,-188.65 108.91,-93.24 95.53,-45.98"/>
<polygon fill="none" stroke="black" points="98.85,-44.85 92.84,-36.12 92.1,-46.69 98.85,-44.85"/>
</g>
<!-- \\JotForm\\Errors\\NotImplementedException -->
<g id="node9" class="node">
<title>\\JotForm\\Errors\\NotImplementedException</title>
<polygon fill="none" stroke="black" points="400.5,-230 228.5,-230 228.5,-194 400.5,-194 400.5,-230"/>
<text text-anchor="middle" x="314.5" y="-209.2" font-family="Courier,monospace" font-size="11.00">NotImplementedException</text>
</g>
<!-- \\JotForm\\Errors\\NotImplementedException&#45;&gt;\\Exception -->
<g id="edge14" class="edge">
<title>\\JotForm\\Errors\\NotImplementedException&#45;&gt;\\Exception</title>
<path fill="none" stroke="black" d="M228.8,-193.96C221.1,-190.63 213.69,-186.68 207,-182 155.98,-146.36 118.82,-81.5 100.78,-44.94"/>
<polygon fill="none" stroke="black" points="103.89,-43.34 96.4,-35.85 97.59,-46.38 103.89,-43.34"/>
</g>
<!-- \\JotForm\\ClientFunctions\\User -->
<g id="node10" class="node">
<title>\\JotForm\\ClientFunctions\\User</title>
<polygon fill="none" stroke="black" points="341.5,-1012 287.5,-1012 287.5,-976 341.5,-976 341.5,-1012"/>
<text text-anchor="middle" x="314.5" y="-991.2" font-family="Courier,monospace" font-size="11.00">User</text>
</g>
<!-- \\JotForm\\ClientFunctions\\AbstractClient -->
<g id="node16" class="node">
<title>\\JotForm\\ClientFunctions\\AbstractClient</title>
<polygon fill="none" stroke="black" points="143,-877 32,-877 32,-841 143,-841 143,-877"/>
<text text-anchor="start" x="53.5" y="-862.2" font-family="Courier,monospace" font-size="11.00">«abstract»</text>
<text text-anchor="start" x="40" y="-850.2" font-family="Courier,monospace" font-size="11.00">AbstractClient</text>
</g>
<!-- \\JotForm\\ClientFunctions\\User&#45;&gt;\\JotForm\\ClientFunctions\\AbstractClient -->
<g id="edge2" class="edge">
<title>\\JotForm\\ClientFunctions\\User&#45;&gt;\\JotForm\\ClientFunctions\\AbstractClient</title>
<path fill="none" stroke="black" d="M287.25,-990.99C264.86,-987.59 232.36,-980.65 207,-967 168.07,-946.05 131.84,-909.53 109.94,-884.82"/>
<polygon fill="none" stroke="black" points="112.55,-882.49 103.35,-877.25 107.27,-887.09 112.55,-882.49"/>
</g>
<!-- \\JotForm\\ClientFunctions\\Submission -->
<g id="node11" class="node">
<title>\\JotForm\\ClientFunctions\\Submission</title>
<polygon fill="none" stroke="black" points="356.5,-958 272.5,-958 272.5,-922 356.5,-922 356.5,-958"/>
<text text-anchor="middle" x="314.5" y="-937.2" font-family="Courier,monospace" font-size="11.00">Submission</text>
</g>
<!-- \\JotForm\\ClientFunctions\\Submission&#45;&gt;\\JotForm\\ClientFunctions\\AbstractClient -->
<g id="edge4" class="edge">
<title>\\JotForm\\ClientFunctions\\Submission&#45;&gt;\\JotForm\\ClientFunctions\\AbstractClient</title>
<path fill="none" stroke="black" d="M272.28,-931.37C252.32,-926.73 228.14,-920.43 207,-913 181.8,-904.15 154.63,-891.97 132.67,-881.41"/>
<polygon fill="none" stroke="black" points="134.12,-878.23 123.6,-877.01 131.06,-884.52 134.12,-878.23"/>
</g>
<!-- \\JotForm\\ClientFunctions\\Report -->
<g id="node12" class="node">
<title>\\JotForm\\ClientFunctions\\Report</title>
<polygon fill="none" stroke="black" points="343,-904 286,-904 286,-868 343,-868 343,-904"/>
<text text-anchor="middle" x="314.5" y="-883.2" font-family="Courier,monospace" font-size="11.00">Report</text>
</g>
<!-- \\JotForm\\ClientFunctions\\Report&#45;&gt;\\JotForm\\ClientFunctions\\AbstractClient -->
<g id="edge6" class="edge">
<title>\\JotForm\\ClientFunctions\\Report&#45;&gt;\\JotForm\\ClientFunctions\\AbstractClient</title>
<path fill="none" stroke="black" d="M285.91,-882.69C253.03,-878.74 197.02,-872.02 153.04,-866.75"/>
<polygon fill="none" stroke="black" points="153.35,-863.26 143,-865.54 152.51,-870.21 153.35,-863.26"/>
</g>
<!-- \\JotForm\\ClientFunctions\\Form -->
<g id="node13" class="node">
<title>\\JotForm\\ClientFunctions\\Form</title>
<polygon fill="none" stroke="black" points="341.5,-850 287.5,-850 287.5,-814 341.5,-814 341.5,-850"/>
<text text-anchor="middle" x="314.5" y="-829.2" font-family="Courier,monospace" font-size="11.00">Form</text>
</g>
<!-- \\JotForm\\ClientFunctions\\Form&#45;&gt;\\JotForm\\ClientFunctions\\AbstractClient -->
<g id="edge11" class="edge">
<title>\\JotForm\\ClientFunctions\\Form&#45;&gt;\\JotForm\\ClientFunctions\\AbstractClient</title>
<path fill="none" stroke="black" d="M287.25,-835.15C254.66,-839.06 197.95,-845.87 153.42,-851.21"/>
<polygon fill="none" stroke="black" points="152.77,-847.76 143.26,-852.43 153.6,-854.71 152.77,-847.76"/>
</g>
<!-- \\JotForm\\ClientFunctions\\System -->
<g id="node14" class="node">
<title>\\JotForm\\ClientFunctions\\System</title>
<polygon fill="none" stroke="black" points="343,-796 286,-796 286,-760 343,-760 343,-796"/>
<text text-anchor="middle" x="314.5" y="-775.2" font-family="Courier,monospace" font-size="11.00">System</text>
</g>
<!-- \\JotForm\\ClientFunctions\\System&#45;&gt;\\JotForm\\ClientFunctions\\AbstractClient -->
<g id="edge12" class="edge">
<title>\\JotForm\\ClientFunctions\\System&#45;&gt;\\JotForm\\ClientFunctions\\AbstractClient</title>
<path fill="none" stroke="black" d="M285.96,-783.56C264.22,-788.28 233.27,-795.77 207,-805 181.8,-813.85 154.63,-826.03 132.67,-836.59"/>
<polygon fill="none" stroke="black" points="131.06,-833.48 123.6,-840.99 134.12,-839.77 131.06,-833.48"/>
</g>
<!-- \\JotForm\\ClientFunctions\\Folder -->
<g id="node15" class="node">
<title>\\JotForm\\ClientFunctions\\Folder</title>
<polygon fill="none" stroke="black" points="343,-742 286,-742 286,-706 343,-706 343,-742"/>
<text text-anchor="middle" x="314.5" y="-721.2" font-family="Courier,monospace" font-size="11.00">Folder</text>
</g>
<!-- \\JotForm\\ClientFunctions\\Folder&#45;&gt;\\JotForm\\ClientFunctions\\AbstractClient -->
<g id="edge15" class="edge">
<title>\\JotForm\\ClientFunctions\\Folder&#45;&gt;\\JotForm\\ClientFunctions\\AbstractClient</title>
<path fill="none" stroke="black" d="M285.9,-727.22C263.57,-730.69 231.86,-737.62 207,-751 168.07,-771.95 131.84,-808.47 109.94,-833.18"/>
<polygon fill="none" stroke="black" points="107.27,-830.91 103.35,-840.75 112.55,-835.51 107.27,-830.91"/>
</g>
<!-- \\JotForm\\JotFormAPI\\RequestHandler -->
<g id="node17" class="node">
<title>\\JotForm\\JotFormAPI\\RequestHandler</title>
<polygon fill="none" stroke="black" points="370,-150 259,-150 259,-114 370,-114 370,-150"/>
<text text-anchor="middle" x="314.5" y="-129.2" font-family="Courier,monospace" font-size="11.00">RequestHandler</text>
</g>
<!-- \\JotForm\\JotForm -->
<g id="node18" class="node">
<title>\\JotForm\\JotForm</title>
<polygon fill="none" stroke="black" points="346.5,-96 282.5,-96 282.5,-60 346.5,-60 346.5,-96"/>
<text text-anchor="middle" x="314.5" y="-75.2" font-family="Courier,monospace" font-size="11.00">JotForm</text>
</g>
</g>
</svg>
